<mxfile host="app.diagrams.net" modified="2023-12-21T21:45:46.777Z" agent="Mozilla/5.0 (Windows NT 10.0; Win64; x64) AppleWebKit/537.36 (KHTML, like Gecko) Chrome/120.0.0.0 Safari/537.36 Edg/120.0.0.0" etag="7JMZB7oO9P8oEUI1KDEW" version="22.1.11" type="device">
  <diagram name="Страница — 1" id="XDN9p9-JcU3DlT8tcf-w">
    <mxGraphModel dx="1556" dy="919" grid="1" gridSize="10" guides="1" tooltips="1" connect="1" arrows="1" fold="1" page="1" pageScale="1" pageWidth="827" pageHeight="1169" math="0" shadow="0">
      <root>
        <mxCell id="0" />
        <mxCell id="1" parent="0" />
        <mxCell id="c7cS63Duhm_Zh4_BkCC_-1" value="Пользователь" style="shape=umlActor;verticalLabelPosition=bottom;verticalAlign=top;html=1;" vertex="1" parent="1">
          <mxGeometry x="399" y="20" width="30" height="60" as="geometry" />
        </mxCell>
        <mxCell id="c7cS63Duhm_Zh4_BkCC_-2" value="Добавление нового студента" style="ellipse;whiteSpace=wrap;html=1;" vertex="1" parent="1">
          <mxGeometry x="250" y="120" width="140" height="70" as="geometry" />
        </mxCell>
        <mxCell id="c7cS63Duhm_Zh4_BkCC_-19" style="edgeStyle=orthogonalEdgeStyle;rounded=0;orthogonalLoop=1;jettySize=auto;html=1;endArrow=none;endFill=0;" edge="1" parent="1" source="c7cS63Duhm_Zh4_BkCC_-4">
          <mxGeometry relative="1" as="geometry">
            <mxPoint x="410" y="155" as="targetPoint" />
          </mxGeometry>
        </mxCell>
        <mxCell id="c7cS63Duhm_Zh4_BkCC_-4" value="Удаление студента" style="ellipse;whiteSpace=wrap;html=1;" vertex="1" parent="1">
          <mxGeometry x="440" y="120" width="140" height="70" as="geometry" />
        </mxCell>
        <mxCell id="c7cS63Duhm_Zh4_BkCC_-21" style="edgeStyle=orthogonalEdgeStyle;rounded=0;orthogonalLoop=1;jettySize=auto;html=1;endArrow=none;endFill=0;" edge="1" parent="1" source="c7cS63Duhm_Zh4_BkCC_-5">
          <mxGeometry relative="1" as="geometry">
            <mxPoint x="420" y="245" as="targetPoint" />
          </mxGeometry>
        </mxCell>
        <mxCell id="c7cS63Duhm_Zh4_BkCC_-5" value="Корректировка записи о студенте" style="ellipse;whiteSpace=wrap;html=1;" vertex="1" parent="1">
          <mxGeometry x="250" y="210" width="140" height="70" as="geometry" />
        </mxCell>
        <mxCell id="c7cS63Duhm_Zh4_BkCC_-22" style="edgeStyle=orthogonalEdgeStyle;rounded=0;orthogonalLoop=1;jettySize=auto;html=1;endArrow=none;endFill=0;" edge="1" parent="1" source="c7cS63Duhm_Zh4_BkCC_-6">
          <mxGeometry relative="1" as="geometry">
            <mxPoint x="410" y="245" as="targetPoint" />
          </mxGeometry>
        </mxCell>
        <mxCell id="c7cS63Duhm_Zh4_BkCC_-6" value="Поиск студентов в списке" style="ellipse;whiteSpace=wrap;html=1;" vertex="1" parent="1">
          <mxGeometry x="440" y="210" width="140" height="70" as="geometry" />
        </mxCell>
        <mxCell id="c7cS63Duhm_Zh4_BkCC_-23" style="edgeStyle=orthogonalEdgeStyle;rounded=0;orthogonalLoop=1;jettySize=auto;html=1;endArrow=none;endFill=0;" edge="1" parent="1" source="c7cS63Duhm_Zh4_BkCC_-7">
          <mxGeometry relative="1" as="geometry">
            <mxPoint x="420" y="335" as="targetPoint" />
          </mxGeometry>
        </mxCell>
        <mxCell id="c7cS63Duhm_Zh4_BkCC_-7" value="Сохранение и загрузка студентов из файлов" style="ellipse;whiteSpace=wrap;html=1;" vertex="1" parent="1">
          <mxGeometry x="250" y="300" width="140" height="70" as="geometry" />
        </mxCell>
        <mxCell id="c7cS63Duhm_Zh4_BkCC_-24" style="edgeStyle=orthogonalEdgeStyle;rounded=0;orthogonalLoop=1;jettySize=auto;html=1;endArrow=none;endFill=0;" edge="1" parent="1" source="c7cS63Duhm_Zh4_BkCC_-8">
          <mxGeometry relative="1" as="geometry">
            <mxPoint x="410" y="335" as="targetPoint" />
          </mxGeometry>
        </mxCell>
        <mxCell id="c7cS63Duhm_Zh4_BkCC_-8" value="Выход из программы" style="ellipse;whiteSpace=wrap;html=1;" vertex="1" parent="1">
          <mxGeometry x="440" y="300" width="140" height="70" as="geometry" />
        </mxCell>
        <mxCell id="c7cS63Duhm_Zh4_BkCC_-20" style="edgeStyle=orthogonalEdgeStyle;rounded=0;orthogonalLoop=1;jettySize=auto;html=1;endArrow=none;endFill=0;" edge="1" parent="1" source="c7cS63Duhm_Zh4_BkCC_-9">
          <mxGeometry relative="1" as="geometry">
            <mxPoint x="414" y="150" as="targetPoint" />
          </mxGeometry>
        </mxCell>
        <mxCell id="c7cS63Duhm_Zh4_BkCC_-9" value="Получение статистических данных о студентах" style="ellipse;whiteSpace=wrap;html=1;" vertex="1" parent="1">
          <mxGeometry x="344" y="390" width="140" height="70" as="geometry" />
        </mxCell>
        <mxCell id="c7cS63Duhm_Zh4_BkCC_-17" style="edgeStyle=orthogonalEdgeStyle;rounded=0;orthogonalLoop=1;jettySize=auto;html=1;entryX=1;entryY=0.5;entryDx=0;entryDy=0;endArrow=none;endFill=0;" edge="1" parent="1" source="c7cS63Duhm_Zh4_BkCC_-1" target="c7cS63Duhm_Zh4_BkCC_-2">
          <mxGeometry relative="1" as="geometry">
            <Array as="points">
              <mxPoint x="414" y="155" />
            </Array>
          </mxGeometry>
        </mxCell>
        <mxCell id="c7cS63Duhm_Zh4_BkCC_-28" style="edgeStyle=orthogonalEdgeStyle;rounded=0;orthogonalLoop=1;jettySize=auto;html=1;entryX=0;entryY=0.5;entryDx=0;entryDy=0;endArrow=none;endFill=0;dashed=1;" edge="1" parent="1" source="c7cS63Duhm_Zh4_BkCC_-27" target="c7cS63Duhm_Zh4_BkCC_-7">
          <mxGeometry relative="1" as="geometry" />
        </mxCell>
        <mxCell id="c7cS63Duhm_Zh4_BkCC_-27" value="Работает как с обычными, так и с типизированными файлами" style="shape=note2;boundedLbl=1;whiteSpace=wrap;html=1;size=25;verticalAlign=top;align=center;" vertex="1" parent="1">
          <mxGeometry x="50" y="295" width="150" height="80" as="geometry" />
        </mxCell>
      </root>
    </mxGraphModel>
  </diagram>
</mxfile>
